<?xml version="1.0" standalone="no"?><!DOCTYPE svg PUBLIC "-//W3C//DTD SVG 1.1//EN" "http://www.w3.org/Graphics/SVG/1.1/DTD/svg11.dtd"><svg t="1704024652644" class="icon" viewBox="0 0 1024 1024" version="1.1" xmlns="http://www.w3.org/2000/svg" p-id="1154" xmlns:xlink="http://www.w3.org/1999/xlink" width="200" height="200"><path d="M779.16324282 206.47962941H382.04404612a38.16617755 38.16617755 0 0 0-38.16617754 38.16617754v76.33235509H244.83675718A38.16617755 38.16617755 0 0 0 206.67057962 359.14433958V778.97229259a38.16617755 38.16617755 0 0 0 38.16617755 38.16617754h419.82795301a38.16617755 38.16617755 0 0 0 38.16617756-38.16617754V679.35892723h76.33235509a38.16617755 38.16617755 0 0 0 38.16617755-38.16617756V244.64580695A38.16617755 38.16617755 0 0 0 779.16324282 206.47962941zM664.66471018 641.19274967V778.97229259H244.83675718V359.14433958h419.827953z m112.97212423 2e-8H702.83088774V359.14433958a38.16617755 38.16617755 0 0 0-38.16617756-38.16617754H382.04404612V244.64580695H779.16324282z" fill="#ffffff" p-id="1155"></path></svg>